/* XPM */
static char *mossy_brick1732203114[] = {
/* columns rows colors chars-per-pixel */
"64 64 256 2 ",
"   c black",
".  c blue",
"X  c green",
"o  c red",
"O  c cyan",
"+  c yellow",
"@  c magenta",
"#  c white",
"$  c #7B7B7B",
"%  c #7B7B7B",
"&  c #7B7B7B",
"*  c #7B7B7B",
"=  c #7B7B7B",
"-  c #7B7B7B",
";  c #7B7B7B",
":  c #7B7B7B",
">  c #7B7B7B",
",  c #7B7B7B",
"<  c #7B7B7B",
"1  c #7B7B7B",
"2  c #7B7B7B",
"3  c #7B7B7B",
"4  c #7B7B7B",
"5  c #7B7B7B",
"6  c #7B7B7B",
"7  c #7B7B7B",
"8  c #7B7B7B",
"9  c #7B7B7B",
"0  c #7B7B7B",
"q  c #7B7B7B",
"w  c #7B7B7B",
"e  c #7B7B7B",
"r  c #7B7B7B",
"t  c #7B7B7B",
"y  c #7B7B7B",
"u  c #7B7B7B",
"i  c #7B7B7B",
"p  c #7B7B7B",
"a  c #7B7B7B",
"s  c #7B7B7B",
"d  c #7B7B7B",
"f  c #7B7B7B",
"g  c #7B7B7B",
"h  c #7B7B7B",
"j  c #7B7B7B",
"k  c #7B7B7B",
"l  c #7B7B7B",
"z  c #7B7B7B",
"x  c #7B7B7B",
"c  c #7B7B7B",
"v  c #7B7B7B",
"b  c #7B7B7B",
"n  c #7B7B7B",
"m  c #7B7B7B",
"M  c #7B7B7B",
"N  c #7B7B7B",
"B  c #7B7B7B",
"V  c #7B7B7B",
"C  c #7B7B7B",
"Z  c #7B7B7B",
"A  c #7B7B7B",
"S  c #7B7B7B",
"D  c #7B7B7B",
"F  c #7B7B7B",
"G  c #7B7B7B",
"H  c #7B7B7B",
"J  c #7B7B7B",
"K  c #7B7B7B",
"L  c #7B7B7B",
"P  c #7B7B7B",
"I  c #7B7B7B",
"U  c #7B7B7B",
"Y  c #7B7B7B",
"T  c #7B7B7B",
"R  c #7B7B7B",
"E  c #7B7B7B",
"W  c #7B7B7B",
"Q  c #7B7B7B",
"!  c #7B7B7B",
"~  c #7B7B7B",
"^  c #7B7B7B",
"/  c #7B7B7B",
"(  c #7B7B7B",
")  c #7B7B7B",
"_  c #7B7B7B",
"`  c #7B7B7B",
"'  c #7B7B7B",
"]  c #7B7B7B",
"[  c #7B7B7B",
"{  c #7B7B7B",
"}  c #7B7B7B",
"|  c #7B7B7B",
" . c #7B7B7B",
".. c #7B7B7B",
"X. c #7B7B7B",
"o. c #7B7B7B",
"O. c #7B7B7B",
"+. c #7B7B7B",
"@. c #7B7B7B",
"#. c #7B7B7B",
"$. c #7B7B7B",
"%. c #7B7B7B",
"&. c #7B7B7B",
"*. c #7B7B7B",
"=. c #7B7B7B",
"-. c #7B7B7B",
";. c #7B7B7B",
":. c #7B7B7B",
">. c #7B7B7B",
",. c #7B7B7B",
"<. c #7B7B7B",
"1. c #7B7B7B",
"2. c #7B7B7B",
"3. c #7B7B7B",
"4. c #7B7B7B",
"5. c #7B7B7B",
"6. c #7B7B7B",
"7. c #7B7B7B",
"8. c #7B7B7B",
"9. c #7B7B7B",
"0. c #7B7B7B",
"q. c #7B7B7B",
"w. c #7B7B7B",
"e. c #7B7B7B",
"r. c #7B7B7B",
"t. c #7B7B7B",
"y. c #7B7B7B",
"u. c #7B7B7B",
"i. c #7B7B7B",
"p. c #7B7B7B",
"a. c #7B7B7B",
"s. c #7B7B7B",
"d. c #7B7B7B",
"f. c #7B7B7B",
"g. c #7B7B7B",
"h. c #7B7B7B",
"j. c #7B7B7B",
"k. c #7B7B7B",
"l. c #7B7B7B",
"z. c #7B7B7B",
"x. c #7B7B7B",
"c. c #7B7B7B",
"v. c #7B7B7B",
"b. c #7B7B7B",
"n. c #7B7B7B",
"m. c #7B7B7B",
"M. c #7B7B7B",
"N. c #7B7B7B",
"B. c #7B7B7B",
"V. c #7B7B7B",
"C. c #7B7B7B",
"Z. c #7B7B7B",
"A. c #7B7B7B",
"S. c #7B7B7B",
"D. c #7B7B7B",
"F. c #7B7B7B",
"G. c #7B7B7B",
"H. c #7B7B7B",
"J. c #7B7B7B",
"K. c #7B7B7B",
"L. c #7B7B7B",
"P. c #7B7B7B",
"I. c #7B7B7B",
"U. c #7B7B7B",
"Y. c #7B7B7B",
"T. c #7B7B7B",
"R. c #7B7B7B",
"E. c #7B7B7B",
"W. c #7B7B7B",
"Q. c #7B7B7B",
"!. c #7B7B7B",
"~. c #7B7B7B",
"^. c #7B7B7B",
"/. c #7B7B7B",
"(. c #7B7B7B",
"). c #7B7B7B",
"_. c #7B7B7B",
"`. c #7B7B7B",
"'. c #7B7B7B",
"]. c #7B7B7B",
"[. c #7B7B7B",
"{. c #7B7B7B",
"}. c #7B7B7B",
"|. c #7B7B7B",
" X c #7B7B7B",
".X c #7B7B7B",
"XX c #7B7B7B",
"oX c #7B7B7B",
"OX c #7B7B7B",
"+X c #7B7B7B",
"@X c #7B7B7B",
"#X c #7B7B7B",
"$X c #7B7B7B",
"%X c #7B7B7B",
"&X c #7B7B7B",
"*X c #7B7B7B",
"=X c #7B7B7B",
"-X c #7B7B7B",
";X c #7B7B7B",
":X c #7B7B7B",
">X c #7B7B7B",
",X c #7B7B7B",
"<X c #7B7B7B",
"1X c #7B7B7B",
"2X c #7B7B7B",
"3X c #7B7B7B",
"4X c #7B7B7B",
"5X c #7B7B7B",
"6X c #7B7B7B",
"7X c #7B7B7B",
"8X c #7B7B7B",
"9X c #7B7B7B",
"0X c #7B7B7B",
"qX c #7B7B7B",
"wX c #7B7B7B",
"eX c #7B7B7B",
"rX c #7B7B7B",
"tX c #7B7B7B",
"yX c #7B7B7B",
"uX c #7B7B7B",
"iX c #7B7B7B",
"pX c #392910",
"aX c #525239",
"sX c #5A4129",
"dX c #412918",
"fX c #202020",
"gX c #4A3118",
"hX c #414141",
"jX c #5A6241",
"kX c #394129",
"lX c #413120",
"zX c gray29",
"xX c #4A3929",
"cX c #313920",
"vX c #292008",
"bX c #5A4A31",
"nX c #392918",
"mX c #523918",
"MX c #626A4A",
"NX c #6A5241",
"BX c #413118",
"VX c gray32",
"CX c #4A3920",
"ZX c #735A39",
"AX c #313131",
"SX c #6A4120",
"DX c #7B7B62",
"FX c #625231",
"GX c #5A5A5A",
"HX c #625239",
"JX c #5A4120",
"KX c #6A7352",
"LX c #735A4A",
"PX c #293118",
"IX c gray16",
"UX c #414A31",
/* pixels */
"dXdXdXzXBXxXhXbXbXlXsXxXsXUXUXaXUXlXdXlXhXlXBXkXdXbXUXUXBXbXlXdXcXBXBXhXlXUXUXUXkXlXUXSXBXsXUXBXhXBXhXsXbXBXJXxXsXCXsXUXUXJXUXBX",
"dXdXdXhXzXlXlXsXbXCXlXdXbXkXUXaXBXlXdXhXdXdXUXkXlXCXxXhXBXsXlXlXdXCXhXlXCXcXUXaXUXUXaXJXUXUXUXJXBXsXhXUXbXlXBXCXsXCXCXUXlXJXkXBX",
"dXlXcXkXUXlXlXUXCXBXUXaXJXcXUXaXdXdXBXdXkXkXUXhXlXJXlXUXBXJXGXBXhXCXhXhXlXcXUXaXkXkXaXJXUXUXUXpXlXGXJXJXaXCXBXlXCXBXhXkXdXaXUXBX",
"lXBXhXkXlXhXBXbXxXUXlXhXlXdXUXMXdXlXsXxXaXpXBXaXlXCXCXkXsXsXhXhXlXUXbXUXBXcXUXaXkXlXhXJXUXUXUXdXkXGXGXUXaXsXCXCXxXBXhXcXlXaXjXBX",
"lXCXlXUXlXxXlXbXsXxXUXUXdXdXUXMXBXCXJXdXzXdXUXUXkXJXxXhXsXbXUXxXBXBXUXUXCXcXUXaXdXkXaXJXUXlXUXCXUXaXUXJXbXCXCXBXCXUXBXAXlXbXUXBX",
"BXlXBXBXUXlXUXbXlXUXdXUXdXcXUXMXdXJXJXUXkXxXdXUXdXJXCXUXBXsXUXlXdXdXUXkXlXcXUXaXdXUXjXJXkXlXlXCXdXaXUXUXUXBXCXdXBXBXBXhXdXbXUXCX",
"CXdXlXlXUXlXlXsXlXlXdXUXdXdXUXMXdXsXsXdXkXBXUXUXlXCXUXkXlXsXUXlXCXBXBXUXlXcXUXaXlXlXUXJXUXUXxXlXkXbXUXUXUXdXJXcXBXBXzXdXdXaXUXBX",
"cXBXdXdXUXlXlXsXxXlXcXxXxXdXUXaXBXdXsXdXUXlXxXUXxXCXUXkXlXsXxXxXCXdXlXUXlXcXUXMXUXlXUXJXkXUXhXCXdXbXUXUXkXdXBXdXhXlXhXAXdXjXUXBX",
"dXCXBXkXUXlXlXsXlXUXsXbXlXcXUXaXBXlXlXBXUXlXxXUXlXxXdXkXlXsXsXlXCXlXlXUXlXcXUXMXUXUXUXCXkXUXkXlXBXCXsXkXlXdXdXcXxXxXkXkXBXbXkXCX",
"ZXCXlXkXUXlXlXsXbXUXsXbXIXcXkXUXBXlXlXlXUXlXUXlXlXBXBXcXlXJXsXCXdXlXUXUXlXcXaXMXUXUXhXBXUXkXUXBXdXCXCXkXlXlXlXdXJXJXUXcXdXaXcXJX",
"cXcXcXcXcXcXdXdXcXcXcXcXcXcXkXUXUXUXkXcXcXcXcXcXcXcXcXcXdXdXdXcXcXcXcXcXcXUXaXKXkXkXcXcXcXcXkXcXcXcXcXcXcXcXcXcXcXdXcXcXcXcXcXdX",
"aXUXkXkXkXUXUXUXUXkXkXkXkXkXUXUXaXKXKXaXUXUXUXkXkXkXUXUXUXUXkXkXkXUXUXUXUXjXMXDXaXUXUXkXkXUXjXMXaXUXUXUXUXUXkXcXcXkXUXUXUXUXaXaX",
"BXBXlXlXUXlXhXbXbXbXaXbXxXxXUXlXUXMXMXUXaXaXUXUXdXdXCXcXlXaXbXxXdXlXlXUXdXxXUXlXUXbXUXlXlXUXdXlXUXaXaXkXkXUXUXcXcXCXCXkXlXbXUXCX",
"CXBXdXlXUXdXlXsXUXxXUXbXsXxXlXkXkXaXMXbXaXbXUXUXlXdXUXcXlXbXJXUXdXdXdXkXdXlXUXxXUXUXUXlXlXkXUXBXBXlXUXkXUXkXUXkXBXCXCXcXUXbXUXkX",
"lXlXdXlXUXkXkXNXsXlXbXbXbXaXsXdXcXUXjXbXbXbXMXaXUXlXxXkXlXbXbXbXdXCXxXdXdXUXUXjXUXjXbXlXbXcXBXCXlXxXaXkXkXcXUXkXJXJXUXcXlXaXUXlX",
"dXlXBXUXUXlXxXjXbXbXbXjXaXbXbXhXcXUXjXsXbXsXUXaXbXbXUXUXJXbXbXlXdXlXlXUXlXhXUXbXaXaXbXsXaXjXlXBXdXdXUXUXUXcXUXkXsXbXUXUXUXjXUXkX",
"dXBXdXUXUXlXsXbXbXxXbXGXbXbXaXhXcXUXaXaXbXxXxXUXGXaXsXUXlXbXlXUXdXdXUXjXdXBXJXNXaXUXUXbXUXaXUXdXcXlXUXlXUXcXkXUXxXaXUXUXUXjXxXlX",
"dXlXUXUXUXUXlXNXbXbXbXjXbXxXxXdXcXUXaXlXzXlXaXbXbXsXJXjXdXbXlXlXBXlXkXUXlXlXxXLXUXUXaXbXUXUXUXBXBXUXUXbXbXcXkXaXCXsXbXkXkXjXkXCX",
"dXBXUXkXsXhXlXNXbXsXUXbXNXxXUXdXcXUXjXUXUXaXjXsXbXsXbXjXBXJXjXUXlXlXUXUXxXkXCXNXsXUXaXbXUXUXCXBXlXUXaXbXjXcXUXMXBXJXbXkXkXjXUXlX",
"dXBXxXlXUXUXUXNXbXlXaXbXjXbXlXvXcXUXaXUXbXaXjXaXbXsXUXUXBXbXUXUXdXxXUXUXUXkXsXbXxXxXaXbXUXUXcXBXdXUXaXaXcXcXUXMXBXBXCXkXUXjXUXUX",
"cXcXcXcXcXcXcXcXcXcXcXcXcXcXcXcXkXUXMXkXkXkXkXcXcXdXcXcXcXlXkXkXcXcXkXcXcXcXcXdXdXcXcXkXcXcXIXcXcXcXkXkXcXcXUXMXcXcXcXcXcXkXcXcX",
"aXUXUXkXkXUXUXkXUXkXUXUXkXkXkXkXUXaXKXUXUXUXUXkXUXkXUXkXUXMXKXMXaXUXaXUXUXkXcXkXUXUXUXUXaXUXkXkXUXUXUXUXaXUXMXDXMXaXUXUXaXUXUXUX",
"aXaXxXlXUXlXlXNXUXbXbXbXbXjXsXbXdXbXlXlXbXbXjXaXbXJXJXUXUXaXMXaXlXlXaXaXlXUXUXjXaXjXjXNXaXUXsXJXBXxXlXUXsXlXbXkXdXBXUXlXcXaXlXUX",
"aXCXUXxXUXUXlXMXbXbXUXNXaXaXJXbXlXlXlXlXUXaXbXaXaXJXbXkXkXUXaXaXlXCXxXaXUXlXUXjXjXjXjXNXUXUXUXCXBXkXcXUXUXxXUXlXxXkXUXAXcXjXlXcX",
"kXCXbXxXaXbXUXjXbXbXbXjXaXbXUXsXhXdXUXpXUXUXjXUXbXlXUXkXcXUXjXsXNXUXbXjXdXUXsXbXaXaXaXNXaXjXUXxXCXBXUXUXbXbXUXkXlXUXUXkXkXjXUXcX",
"UXlXlXUXUXbXUXNXsXaXaXjXaXbXlXxXBXxXxXsXxXlXaXUXxXhXJXkXcXUXMXUXlXCXCXaXlXxXbXbXjXaXaXbXaXUXUXJXUXdXkXkXaXJXsXlXCXCXJXUXkXjXcXIX",
"UXhXlXUXUXUXUXjXbXUXaXNXbXbXxXxXdXCXCXaXUXsXUXUXlXCXlXUXcXUXMXxXdXlXxXUXUXUXUXNXaXbXaXjXaXUXlXJXCXlXUXkXaXsXCXdXxXJXxXkXdXjXUXcX",
"UXCXhXCXUXUXbXjXbXsXbXjXbXbXUXsXBXGXsXjXxXUXUXaXdXCXCXUXcXUXjXCXhXJXaXUXlXaXNXNXaXbXaXbXUXjXUXJXCXUXUXUXUXsXsXUXBXBXaXhXUXjXjXcX",
"aXBXlXlXUXkXbXaXbXUXbXjXaXbXUXlXBXbXGXsXaXUXaXUXxXpXUXUXcXUXaXdXdXhXCXUXlXUXJXbXjXjXjXsXUXUXUXhXBXUXhXlXUXbXCXCXdXBXJXUXcXbXUXcX",
"UXdXlXlXkXcXbXsXbXlXaXjXaXbXUXUXBXsXbXbXaXUXUXUXlXxXlXUXcXkXjXdXdXlXsXUXUXlXUXxXaXjXjXFXaXUXxXCXxXCXkXUXaXxXlXCXBXUXBXhXdXjXUXIX",
"UXCXlXUXcXlXxXNXaXxXbXbXbXbXlXdXlXsXbXbXbXkXUXUXlXGXCXvXIXkXUXlXdXlXlXUXxXUXUXbXjXjXjXkXaXUXsXCXBXlXUXUXUXlXBXlXdXCXBXkXcXaXcXIX",
"UXUXlXcXcXcXdXcXcXdXkXkXUXkXcXdXdXcXcXcXdXcXcXcXcXkXdXIXcXkXUXcXcXcXcXcXcXcXkXkXkXUXUXkXcXcXcXcXdXdXcXcXcXdXdXcXcXcXcXcXcXcXcXcX",
"aXaXaXUXUXUXkXkXkXkXUXMXKXKXaXaXUXUXUXUXUXUXaXUXUXkXaXkXkXaXMXUXUXUXaXUXaXUXaXUXaXKXKXaXUXUXaXaXUXUXUXkXUXUXUXkXaXkXUXUXUXUXUXaX",
"BXxXlXkXUXdXhXNXUXUXaXUXMXaXaXlXdXdXjXbXUXUXUXUXbXxXaXUXdXjXlXkXdXzXlXUXUXUXbXjXUXaXMXUXaXaXsXUXdXxXUXUXaXbXzXJXBXhXbXkXlXaXkXsX",
"BXxXlXlXkXlXzXbXsXxXUXcXaXUXJXhXdXdXGXUXbXaXjXaXbXxXxXUXlXjXlXkXdXzXUXUXUXdXUXjXkXUXaXNXaXaXJXdXlXxXaXUXaXaXbXbXBXBXxXUXkXjXUXlX",
"dXlXGXUXcXlXhXsXlXlXaXcXaXUXlXUXlXdXsXbXbXaXjXaXbXxXsXkXlXMXzXkXdXCXlXaXUXxXaXbXkXUXaXjXaXaXsXdXlXUXaXUXaXxXUXUXlXdXxXkXhXjXUXlX",
"dXxXbXxXkXlXhXUXUXxXbXcXUXUXcXdXlXlXGXaXaXbXaXbXsXhXaXkXdXsXlXlXdXUXUXUXUXUXsXbXkXUXaXaXaXaXsXBXlXlXaXUXaXxXlXkXlXdXUXkXUXaXUXUX",
"lXxXsXdXkXUXUXUXaXhXUXcXUXUXkXhXlXBXsXdXbXbXjXaXbXJXbXUXdXjXhXUXcXCXbXaXUXzXbXjXkXUXaXjXaXaXbXlXzXUXaXUXaXlXsXkXxXhXlXUXUXaXUXUX",
"UXsXlXUXUXsXkXbXUXxXlXcXUXUXdXUXxXxXCXlXjXaXaXUXbXbXaXUXdXbXlXlXcXCXlXUXUXhXjXaXkXUXaXNXUXaXsXxXBXbXUXUXUXxXUXkXBXhXlXUXkXaXUXUX",
"lXCXlXUXUXlXlXbXUXlXUXcXUXUXUXxXlXCXxXlXxXaXjXaXbXsXxXUXdXbXAXUXcXUXUXsXUXUXbXaXcXUXaXbXaXaXxXxXlXlXUXUXUXUXhXlXBXAXUXkXkXaXcXUX",
"lXsXbXaXkXxXlXaXUXlXcXcXUXUXdXUXlXCXsXUXUXUXaXUXUXlXlXkXdXbXlXlXlXcXkXUXUXUXUXcXcXUXaXbXUXaXxXCXzXUXUXUXUXUXxXlXBXdXlXcXlXaXUXlX",
"cXcXcXcXcXcXcXcXcXcXcXcXUXaXkXcXcXdXcXcXcXcXkXkXkXcXcXcXcXdXdXcXcXkXkXkXcXcXcXcXcXUXMXkXcXcXdXcXkXkXkXkXcXcXcXcXcXdXcXcXcXcXkXcX",
"aXUXaXkXUXkXkXUXUXkXkXkXaXUXUXkXkXkXUXUXUXUXUXaXaXUXUXkXkXkXUXaXaXMXKXaXUXkXkXkXUXMXKXaXUXkXkXUXaXjXMXaXUXUXkXkXUXUXUXUXaXkXUXkX",
"UXkXdXxXUXUXMXUXUXlXkXbXUXkXUXUXhXCXbXxXlXkXUXUXlXCXUXUXdXbXxXUXkXjXaXkXUXUXjXaXUXjXaXUXUXaXUXCXhXxXUXkXUXUXdXUXdXBXbXkXUXaXaXUX",
"UXlXlXBXUXlXaXUXlXUXUXbXlXcXUXUXdXJXsXbXlXUXUXkXUXxXlXcXdXGXbXkXcXUXUXUXUXUXUXjXUXUXjXaXUXUXUXlXhXbXlXkXUXlXzXUXdXhXUXkXUXaXaXkX",
"UXhXdXUXUXkXlXbXUXkXdXUXkXkXdXlXdXsXbXbXaXlXUXUXUXhXkXdXdXsXbXlXcXUXUXUXsXkXUXaXUXUXaXaXUXUXUXBXlXlXkXUXkXkXUXaXdXBXUXkXUXaXaXcX",
"UXxXdXUXUXlXUXbXkXdXdXlXkXUXkXBXdXGXsXbXbXkXkXUXlXCXUXkXdXsXsXlXdXkXUXUXsXkXUXaXUXaXaXaXUXUXJXBXsXlXUXUXkXdXCXUXBXBXUXkXUXUXaXcX",
"kXxXhXUXUXcXUXaXUXkXlXkXkXUXhXlXdXdXsXUXbXUXcXcXUXCXdXUXhXsXbXlXcXkXUXUXsXUXlXbXaXUXUXaXUXUXxXhXBXUXcXkXUXdXhXUXBXhXxXUXUXUXUXcX",
"aXlXlXUXUXkXbXaXUXlXdXkXUXaXlXdXlXCXhXUXaXkXUXUXaXlXUXUXdXsXlXdXcXkXUXUXsXUXUXaXUXaXUXaXUXUXxXdXCXlXcXUXUXdXzXkXJXhXxXlXUXUXUXcX",
"kXsXlXlXkXcXUXMXUXlXcXUXUXUXlXkXdXcXCXdXUXkXjXUXUXlXUXUXdXGXUXUXcXkXUXUXsXUXlXaXUXaXUXaXUXkXlXpXzXUXkXUXaXlXxXkXJXdXlXkXUXUXcXcX",
"UXlXhXUXkXlXxXaXdXdXCXUXUXUXUXdXdXdXlXkXUXkXaXkXUXcXUXUXsXsXsXcXIXkXUXUXUXxXUXaXUXUXjXaXUXkXxXBXBXUXUXUXaXUXUXlXlXlXCXkXUXUXaXcX",
"kXkXcXcXcXcXcXcXcXcXcXcXkXkXkXcXdXcXcXkXkXcXcXcXcXcXcXcXcXcXcXcXcXUXaXkXcXcXcXkXcXcXkXkXcXcXcXdXcXcXcXcXcXcXcXdXcXdXcXcXcXcXkXcX",
"UXkXkXkXkXUXUXUXUXUXUXUXjXjXaXUXUXkXaXMXMXUXUXkXkXkXUXUXUXUXUXkXUXMXKXaXUXUXUXUXUXUXUXUXUXUXUXUXUXkXkXUXUXUXkXkXcXcXkXkXUXUXaXaX",
"BXdXdXkXkXlXxXzXUXdXUXkXUXkXlXxXdXlXUXaXUXkXUXaXUXxXUXUXlXFXUXUXcXlXkXaXsXdXaXjXUXUXaXaXUXcXUXaXUXUXkXUXUXdXlXkXBXhXUXkXUXUXUXcX",
"BXlXlXkXkXlXlXUXlXUXlXkXkXkXUXxXlXlXcXUXUXUXUXUXbXsXUXUXlXJXUXUXdXdXxXUXbXdXUXjXUXUXjXbXkXUXlXkXUXUXkXkXUXxXxXUXcXCXUXkXcXUXUXUX",
"UXdXlXUXUXlXUXbXkXlXUXkXkXpXlXlXlXlXcXkXUXUXlXUXbXCXxXUXpXlXdXUXCXlXUXUXsXcXUXbXUXUXjXbXkXkXdXcXUXUXkXkXUXbXxXlXBXlXlXkXcXUXUXUX",
"BXCXlXUXkXlXlXbXkXUXUXUXkXkXBXUXlXlXdXUXUXdXkXUXxXGXlXkXpXCXlXUXdXCXUXUXbXUXUXUXUXUXaXbXcXUXUXcXUXUXUXkXxXlXlXlXcXhXkXkXlXaXUXlX",
"lXsXlXkXcXlXlXaXkXdXlXUXkXkXdXxXlXdXdXUXUXkXkXkXUXCXxXkXdXBXxXUXdXlXUXUXaXlXaXkXkXkXaXUXkXkXUXcXkXUXUXkXUXxXdXUXBXlXkXUXlXUXaXxX",
"JXJXhXkXkXUXdXUXUXdXxXUXkXUXlXlXlXlXdXUXUXkXUXUXlXsXlXcXdXsXUXaXJXsXsXaXJXUXlXaXUXxXkXlXkXUXlXcXkXUXUXUXUXlXdXUXdXCXUXkXUXjXjXUX",
"GXxXlXdXdXUXlXlXUXdXUXbXkXkXlXlXlXJXcXUXUXkXUXUXxXlXUXUXlXsXxXUXCXGXbXlXUXCXaXaXUXlXkXlXcXUXlXcXkXUXUXUXUXlXdXlXdXCXxXkXUXUXjXaX",
"JXlXCXdXkXdXzXlXkXUXUXUXkXkXcXUXdXsXcXUXaXkXUXkXUXCXxXkXlXbXbXsXdXCXxXUXUXlXUXUXUXkXUXUXkXUXUXcXkXUXlXlXUXlXUXUXcXBXlXUXUXbXjXxX",
"sXlXlXkXUXdXdXlXkXcXdXcXkXkXdXlXdXvXcXUXUXkXUXUXUXhXUXlXlXCXxXlXlXCXJXUXsXUXcXkXcXUXUXUXUXkXIXIXkXUXkXUXUXlXlXUXdXBXUXkXUXaXaXUX",
"IXdXcXcXcXcXcXcXcXcXcXcXcXcXcXcXcXIXcXUXaXkXcXkXcXkXkXcXdXcXcXcXdXdXdXcXcXcXcXIXIXcXcXcXcXcXIXcXkXUXkXcXcXcXdXcXcXdXcXcXcXcXkXcX",
"kXUXkXUXkXkXkXUXUXUXUXUXUXUXkXkXUXUXUXUXaXaXaXUXUXUXUXaXUXUXUXaXUXUXkXkXUXUXUXkXkXkXkXkXUXUXUXkXUXaXUXUXkXUXUXUXUXUXUXkXkXUXUXUX"
};
